<?xml version="1.0" encoding="utf-8"?>
<!-- Generator: Adobe Illustrator 16.0.4, SVG Export Plug-In . SVG Version: 6.00 Build 0)  -->
<!DOCTYPE svg PUBLIC "-//W3C//DTD SVG 1.1//EN" "http://www.w3.org/Graphics/SVG/1.1/DTD/svg11.dtd">
<svg version="1.1" id="Capa_1" xmlns="http://www.w3.org/2000/svg" xmlns:xlink="http://www.w3.org/1999/xlink" x="0px" y="0px"
	 width="216px" height="146px" viewBox="0 0 216 146" enable-background="new 0 0 216 146" xml:space="preserve">
<path d="M182.061,11.976c-1.031-1.032-2.254-1.548-3.666-1.548H84.537c-1.413,0-2.635,0.516-3.667,1.548
	c-1.032,1.032-1.548,2.254-1.548,3.666v26.071H66.286c-1.413,0-2.988,0.354-4.726,1.06c-1.738,0.706-3.123,1.575-4.155,2.607
	L41.273,61.511c-1.032,1.032-1.901,2.418-2.607,4.155c-0.706,1.739-1.059,3.314-1.059,4.726v33.893
	c-1.413,0-2.635,0.517-3.667,1.549c-1.032,1.031-1.548,2.254-1.548,3.666s0.516,2.634,1.548,3.666
	c1.033,1.032,2.255,1.548,3.667,1.548h10.429c0,5.758,2.036,10.673,6.11,14.747c4.074,4.073,8.989,6.109,14.747,6.109
	c5.758,0,10.673-2.036,14.747-6.109c4.073-4.074,6.11-8.988,6.11-14.747h31.286c0,5.758,2.037,10.673,6.11,14.747
	c4.074,4.073,8.988,6.109,14.746,6.109s10.674-2.036,14.746-6.109c4.074-4.074,6.111-8.988,6.111-14.747h15.643
	c1.412,0,2.635-0.516,3.666-1.548s1.549-2.254,1.549-3.666V15.643C183.607,14.23,183.091,13.009,182.061,11.976z M76.266,122.088
	c-2.038,2.036-4.495,3.055-7.374,3.055s-5.337-1.019-7.374-3.055c-2.036-2.037-3.055-4.495-3.055-7.374
	c0-2.878,1.018-5.336,3.055-7.373c2.038-2.037,4.495-3.056,7.374-3.056s5.337,1.019,7.374,3.056
	c2.036,2.037,3.055,4.495,3.055,7.373C79.321,117.593,78.303,120.051,76.266,122.088z M79.322,73H48.036v-2.444
	c0.108-0.543,0.353-1.141,0.733-1.792l15.887-15.888c0.434-0.379,1.032-0.625,1.792-0.733h12.874V73z M149.266,122.088
	c-2.037,2.036-4.494,3.055-7.373,3.055s-5.336-1.019-7.373-3.055c-2.037-2.037-3.057-4.495-3.057-7.374
	c0-2.878,1.02-5.336,3.057-7.373s4.494-3.056,7.373-3.056s5.336,1.019,7.373,3.056c2.036,2.037,3.055,4.495,3.055,7.373
	C152.32,117.593,151.303,120.051,149.266,122.088z M162.75,59.964c0,0.761-0.244,1.386-0.732,1.874
	c-0.49,0.489-1.115,0.733-1.875,0.733h-18.25v18.25c0,0.761-0.244,1.385-0.732,1.874c-0.489,0.488-1.113,0.732-1.874,0.732h-15.644
	c-0.76,0-1.385-0.244-1.873-0.732c-0.49-0.489-0.733-1.113-0.733-1.874v-18.25h-18.25c-0.761,0-1.385-0.244-1.874-0.733
	c-0.488-0.488-0.733-1.113-0.733-1.874V44.321c0-0.761,0.244-1.385,0.733-1.874c0.489-0.488,1.113-0.733,1.874-0.733h18.25v-18.25
	c0-0.76,0.243-1.385,0.733-1.874c0.488-0.488,1.113-0.732,1.873-0.732h15.644c0.761,0,1.385,0.244,1.874,0.732
	c0.488,0.489,0.732,1.114,0.732,1.874v18.25h18.25c0.76,0,1.385,0.245,1.875,0.733c0.488,0.489,0.732,1.113,0.732,1.874V59.964z"/>
</svg>
