<?xml version="1.0" encoding="utf-8"?>
<!-- Generator: Adobe Illustrator 16.0.4, SVG Export Plug-In . SVG Version: 6.00 Build 0)  -->
<!DOCTYPE svg PUBLIC "-//W3C//DTD SVG 1.1//EN" "http://www.w3.org/Graphics/SVG/1.1/DTD/svg11.dtd">
<svg version="1.1" id="Capa_1" xmlns="http://www.w3.org/2000/svg" xmlns:xlink="http://www.w3.org/1999/xlink" x="0px" y="0px"
	 width="216px" height="146px" viewBox="0 0 216 146" enable-background="new 0 0 216 146" xml:space="preserve">
<g>
	<path d="M59.034,49.128c-2.335,0-4.319,0.814-5.948,2.444c-1.629,1.63-2.444,3.585-2.444,5.866v35.035
		c0,2.334,0.815,4.316,2.444,5.946s3.612,2.444,5.947,2.444c2.336,0,4.305-0.814,5.907-2.444c1.603-1.63,2.404-3.612,2.404-5.946
		V57.438c0-2.282-0.815-4.237-2.444-5.866C63.271,49.943,61.315,49.128,59.034,49.128z"/>
	<path d="M70.605,104.938c0,2.498,0.869,4.616,2.607,6.354c1.738,1.737,3.856,2.606,6.355,2.606h6.029l0.082,18.494
		c0,2.336,0.815,4.317,2.444,5.947s3.585,2.444,5.866,2.444c2.336,0,4.318-0.814,5.948-2.444s2.444-3.611,2.444-5.947v-18.494
		h11.243v18.494c0,2.336,0.814,4.317,2.443,5.947c1.631,1.63,3.613,2.444,5.949,2.444c2.334,0,4.316-0.814,5.946-2.444
		c1.629-1.63,2.442-3.611,2.442-5.947v-18.494h6.111c2.443,0,4.535-0.868,6.273-2.606s2.607-3.856,2.607-6.354V50.676H70.605
		V104.938z"/>
	<path d="M126.494,17.68l5.783-10.673c0.381-0.706,0.244-1.249-0.407-1.629c-0.706-0.326-1.249-0.163-1.629,0.489l-5.866,10.754
		c-5.16-2.281-10.618-3.422-16.376-3.422c-5.757,0-11.216,1.141-16.376,3.422L85.757,5.867c-0.379-0.652-0.923-0.815-1.629-0.489
		c-0.652,0.38-0.787,0.923-0.407,1.629l5.785,10.673c-5.867,2.987-10.537,7.156-14.014,12.506
		c-3.476,5.35-5.214,11.203-5.214,17.557h75.363c0-6.354-1.738-12.207-5.215-17.557S132.307,20.667,126.494,17.68z M93.049,33.2
		c-0.624,0.625-1.371,0.937-2.24,0.937s-1.602-0.312-2.2-0.937c-0.597-0.624-0.896-1.371-0.896-2.24s0.299-1.616,0.896-2.241
		c0.597-0.625,1.331-0.937,2.2-0.937c0.868,0,1.615,0.312,2.24,0.937s0.937,1.372,0.937,2.241S93.674,32.575,93.049,33.2z
		 M127.391,33.2c-0.598,0.625-1.332,0.937-2.201,0.937s-1.615-0.312-2.239-0.937c-0.625-0.624-0.937-1.371-0.937-2.24
		s0.312-1.616,0.937-2.241c0.624-0.625,1.37-0.937,2.239-0.937s1.603,0.312,2.201,0.937c0.596,0.625,0.896,1.372,0.896,2.241
		S127.988,32.575,127.391,33.2z"/>
	<path d="M162.912,51.531c-1.629-1.602-3.611-2.403-5.947-2.403c-2.281,0-4.236,0.801-5.865,2.403
		c-1.63,1.603-2.445,3.572-2.445,5.907v35.035c0,2.334,0.815,4.316,2.445,5.946c1.629,1.63,3.584,2.444,5.865,2.444
		c2.336,0,4.318-0.814,5.947-2.444c1.63-1.63,2.445-3.612,2.445-5.946V57.438C165.357,55.103,164.542,53.134,162.912,51.531z"/>
</g>
</svg>
