<?xml version="1.0" encoding="utf-8"?>
<!-- Generator: Adobe Illustrator 16.0.4, SVG Export Plug-In . SVG Version: 6.00 Build 0)  -->
<!DOCTYPE svg PUBLIC "-//W3C//DTD SVG 1.1//EN" "http://www.w3.org/Graphics/SVG/1.1/DTD/svg11.dtd">
<svg version="1.1" id="Capa_1" xmlns="http://www.w3.org/2000/svg" xmlns:xlink="http://www.w3.org/1999/xlink" x="0px" y="0px"
	 width="216px" height="146px" viewBox="0 0 216 146" enable-background="new 0 0 216 146" xml:space="preserve">
<path d="M173.736,38.944c-1.139-1.521-2.742-2.688-4.809-3.503c0.11,1.902-0.025,3.45-0.406,4.646L144.08,120.5
	c-0.436,1.412-1.387,2.539-2.852,3.381c-1.467,0.842-2.987,1.263-4.562,1.263H61.467c-6.518,0-10.428-1.899-11.732-5.703
	c-0.543-1.467-0.516-2.634,0.082-3.503c0.597-0.816,1.629-1.223,3.096-1.223h70.8c5.051,0,8.541-0.938,10.469-2.812
	c1.93-1.874,3.871-6.043,5.826-12.506l22.323-73.815c1.194-4.019,0.706-7.55-1.467-10.591s-5.269-4.562-9.288-4.562h-62
	c-0.706,0-2.091,0.244-4.155,0.733l0.081-0.245c-1.521-0.325-2.811-0.474-3.87-0.448c-1.059,0.028-2.037,0.34-2.933,0.938
	c-0.896,0.598-1.616,1.235-2.159,1.914c-0.543,0.679-1.073,1.548-1.589,2.607c-0.515,1.06-0.95,2.038-1.303,2.934
	c-0.353,0.896-0.761,1.847-1.222,2.853c-0.462,1.005-0.909,1.833-1.344,2.484c-0.326,0.435-0.787,1.005-1.385,1.711
	c-0.597,0.706-1.086,1.331-1.466,1.874s-0.625,1.032-0.733,1.467c-0.108,0.488-0.054,1.208,0.163,2.159
	c0.217,0.95,0.299,1.642,0.244,2.077c-0.217,2.064-0.964,4.684-2.24,7.862c-1.276,3.178-2.431,5.473-3.463,6.885
	c-0.217,0.271-0.814,0.882-1.792,1.833c-0.978,0.95-1.575,1.778-1.792,2.484c-0.217,0.271-0.231,1.032-0.041,2.281
	c0.19,1.25,0.259,2.118,0.204,2.607c-0.218,1.847-0.896,4.291-2.037,7.333c-1.141,3.041-2.281,5.54-3.422,7.495
	c-0.163,0.326-0.624,0.95-1.385,1.874c-0.76,0.924-1.222,1.684-1.385,2.281c-0.108,0.434-0.094,1.195,0.041,2.281
	c0.135,1.086,0.122,1.9-0.041,2.443c-0.434,2.063-1.249,4.549-2.444,7.455c-1.195,2.905-2.417,5.392-3.667,7.454
	c-0.325,0.544-0.774,1.183-1.344,1.915c-0.57,0.733-1.018,1.371-1.344,1.914c-0.326,0.544-0.543,1.114-0.652,1.711
	c-0.054,0.326,0.028,0.856,0.245,1.59c0.217,0.732,0.299,1.316,0.244,1.752c-0.055,0.76-0.163,1.766-0.326,3.015
	s-0.245,1.981-0.245,2.198c-1.195,3.26-1.141,6.709,0.163,10.349c1.521,4.235,4.223,7.808,8.106,10.714
	c3.884,2.905,7.916,4.357,12.099,4.357h75.2c3.529,0,6.856-1.182,9.979-3.543c3.123-2.363,5.201-5.282,6.232-8.76l22.404-73.813
	C176.398,45.543,175.91,42.04,173.736,38.944z M87.05,39.107l1.711-5.215c0.217-0.706,0.665-1.317,1.344-1.833
	c0.679-0.515,1.372-0.774,2.078-0.774h49.536c0.76,0,1.303,0.258,1.629,0.774s0.381,1.127,0.164,1.833l-1.712,5.215
	c-0.218,0.706-0.665,1.316-1.345,1.833c-0.68,0.515-1.371,0.773-2.077,0.773H88.843c-0.761,0-1.304-0.257-1.63-0.773
	C86.887,40.423,86.833,39.813,87.05,39.107z M80.288,59.964l1.711-5.214c0.217-0.706,0.665-1.317,1.344-1.833
	c0.679-0.516,1.371-0.774,2.078-0.774h49.535c0.761,0,1.304,0.257,1.63,0.774c0.325,0.516,0.38,1.127,0.162,1.833l-1.711,5.214
	c-0.217,0.706-0.665,1.317-1.344,1.833c-0.68,0.516-1.371,0.774-2.078,0.774H82.08c-0.76,0-1.303-0.257-1.629-0.774
	C80.125,61.281,80.071,60.67,80.288,59.964z"/>
</svg>
