<?xml version="1.0" encoding="utf-8"?>
<!-- Generator: Adobe Illustrator 16.0.4, SVG Export Plug-In . SVG Version: 6.00 Build 0)  -->
<!DOCTYPE svg PUBLIC "-//W3C//DTD SVG 1.1//EN" "http://www.w3.org/Graphics/SVG/1.1/DTD/svg11.dtd">
<svg version="1.1" id="Capa_1" xmlns="http://www.w3.org/2000/svg" xmlns:xlink="http://www.w3.org/1999/xlink" x="0px" y="0px"
	 width="216px" height="146px" viewBox="0 0 216 146" enable-background="new 0 0 216 146" xml:space="preserve">
<path d="M162.18,41.592c-5.595-9.586-13.185-17.176-22.771-22.771c-9.588-5.595-20.055-8.392-31.408-8.392
	c-11.352,0-21.822,2.797-31.408,8.392c-9.587,5.594-17.177,13.184-22.772,22.771C48.225,51.179,45.428,61.649,45.428,73
	c0,11.352,2.798,21.82,8.392,31.408c5.595,9.585,13.185,17.176,22.772,22.771c9.587,5.595,20.056,8.392,31.408,8.392
	c11.352,0,21.822-2.797,31.408-8.392c9.586-5.594,17.176-13.185,22.771-22.771c5.594-9.587,8.391-20.057,8.391-31.408
	C170.57,61.648,167.773,51.178,162.18,41.592z M118.43,112.107c0,0.76-0.246,1.385-0.734,1.873
	c-0.487,0.488-1.112,0.732-1.872,0.732h-15.644c-0.76,0-1.385-0.244-1.874-0.732c-0.489-0.488-0.733-1.113-0.733-1.873V96.463
	c0-0.76,0.244-1.385,0.733-1.874c0.489-0.487,1.114-0.731,1.874-0.731h15.644c0.76,0,1.385,0.244,1.872,0.731
	c0.488,0.489,0.734,1.114,0.734,1.874V112.107z M138.268,63.956c-0.679,2.01-1.439,3.654-2.281,4.93
	c-0.842,1.276-2.051,2.58-3.627,3.91c-1.573,1.331-2.823,2.282-3.748,2.853c-0.922,0.569-2.254,1.344-3.991,2.321
	c-1.792,1.032-3.271,2.376-4.438,4.033c-1.168,1.656-1.752,3.001-1.752,4.032c0,0.761-0.246,1.386-0.734,1.874
	c-0.487,0.489-1.112,0.733-1.872,0.733h-15.644c-0.76,0-1.385-0.244-1.874-0.733c-0.489-0.488-0.733-1.113-0.733-1.874v-2.934
	c0-3.639,1.425-7.048,4.277-10.225c2.852-3.178,5.989-5.527,9.411-7.048c2.606-1.194,4.453-2.417,5.539-3.666
	c1.088-1.249,1.631-2.907,1.631-4.97c0-1.793-1.02-3.395-3.057-4.808c-2.037-1.412-4.357-2.118-6.965-2.118
	c-2.825,0-5.16,0.652-7.007,1.956c-1.793,1.303-4.128,3.802-7.007,7.495c-0.489,0.652-1.168,0.979-2.037,0.979
	c-0.652,0-1.168-0.163-1.548-0.488l-10.754-8.147c-1.249-0.978-1.466-2.118-0.652-3.422c6.953-11.569,17.028-17.354,30.226-17.354
	c4.727,0,9.344,1.114,13.852,3.341c4.508,2.226,8.269,5.377,11.285,9.451c3.012,4.073,4.521,8.5,4.521,13.28
	C139.286,59.747,138.945,61.946,138.268,63.956z"/>
</svg>
