<?xml version="1.0" encoding="utf-8"?>
<!-- Generator: Adobe Illustrator 16.0.4, SVG Export Plug-In . SVG Version: 6.00 Build 0)  -->
<!DOCTYPE svg PUBLIC "-//W3C//DTD SVG 1.1//EN" "http://www.w3.org/Graphics/SVG/1.1/DTD/svg11.dtd">
<svg version="1.1" id="Capa_1" xmlns="http://www.w3.org/2000/svg" xmlns:xlink="http://www.w3.org/1999/xlink" x="0px" y="0px"
	 width="216px" height="146px" viewBox="0 0 216 146" enable-background="new 0 0 216 146" xml:space="preserve">
<path d="M98.875,73l32.02-32.019c0.543-0.543,0.814-1.168,0.814-1.874s-0.271-1.331-0.814-1.873l-4.074-4.074
	c-0.543-0.543-1.168-0.815-1.873-0.815c-0.706,0-1.331,0.272-1.874,0.815L85.107,71.126c-0.543,0.543-0.814,1.168-0.814,1.874
	s0.271,1.331,0.814,1.874l37.966,37.966c0.543,0.544,1.168,0.815,1.874,0.815c0.705,0,1.33-0.271,1.873-0.815l4.074-4.072
	c0.543-0.543,0.814-1.168,0.814-1.875c0-0.705-0.271-1.33-0.814-1.873L98.875,73z"/>
</svg>
