<?xml version="1.0" encoding="utf-8"?>
<!-- Generator: Adobe Illustrator 16.0.4, SVG Export Plug-In . SVG Version: 6.00 Build 0)  -->
<!DOCTYPE svg PUBLIC "-//W3C//DTD SVG 1.1//EN" "http://www.w3.org/Graphics/SVG/1.1/DTD/svg11.dtd">
<svg version="1.1" id="Capa_1" xmlns="http://www.w3.org/2000/svg" xmlns:xlink="http://www.w3.org/1999/xlink" x="0px" y="0px"
	 width="216px" height="146px" viewBox="0 0 216 146" enable-background="new 0 0 216 146" xml:space="preserve">
<path d="M157.861,77.642c-4.889-5.704-12.139-9.668-21.754-11.895c6.738-3.096,10.811-5.187,12.223-6.273
	c3.422-2.553,6.002-5.405,7.738-8.555c1.738-3.151,2.607-6.627,2.607-10.429c0-3.53-0.57-6.843-1.711-9.939
	c-1.141-3.097-2.906-5.921-5.295-8.474c-2.445-2.552-5.215-4.617-8.311-6.192c-2.879-1.412-5.486-2.471-7.822-3.177
	c-5.594-1.467-10.782-2.2-15.561-2.2h-6.029c-1.086,0-2.187-0.014-3.301-0.041c-1.112-0.026-1.696-0.04-1.75-0.04
	c-0.271,0-0.652,0.014-1.142,0.04c-0.489,0.027-0.87,0.041-1.141,0.041l-3.667,0.082l-30.959,1.059l-21.183,0.489l0.326,6.762
	c4.562,0.598,7.659,0.952,9.288,1.06c2.77,0.163,4.644,0.571,5.622,1.222c0.598,0.435,0.924,0.761,0.978,0.978
	c0.543,1.195,0.841,4.155,0.896,8.881c0.217,8.039,0.462,19.011,0.733,32.915l0.163,40.492c0,6.952-0.244,12.222-0.733,15.806
	c-0.217,1.303-0.788,2.689-1.711,4.155c-2.499,1.032-5.839,1.874-10.021,2.526c-1.249,0.162-3.096,0.488-5.54,0.978l-0.163,7.658
	c12.981-0.435,20.368-0.733,22.162-0.896c11.623-0.707,19.717-1.005,24.279-0.896l16.05,0.324
	c6.302,0.217,11.679-0.082,16.132-0.896c7.061-1.304,12.573-2.935,16.539-4.89c4.019-1.955,7.821-4.889,11.405-8.799
	c2.718-2.986,4.644-6.164,5.785-9.533c1.575-4.615,2.362-8.987,2.362-13.116C165.357,89.809,162.859,83.4,157.861,77.642z
	 M94.068,19.88c4.236-0.706,7.767-1.059,10.591-1.059c9.288,0,16.214,2.037,20.776,6.11c4.615,4.073,6.924,9.152,6.924,15.235
	c0,8.637-2.416,14.72-7.25,18.25c-4.834,3.53-12.004,5.296-21.509,5.296c-3.585,0-6.545-0.19-8.88-0.57
	c-0.055-1.847-0.082-3.938-0.082-6.274l0.082-7.984c0.054-8.527-0.109-16.104-0.489-22.731
	C94.122,24.361,94.068,22.271,94.068,19.88z M134.805,113.98c-2.01,3.91-5.324,6.979-9.939,9.207
	c-4.618,2.227-10.484,3.34-17.599,3.34c-3.476,0-7.278-0.868-11.406-2.606c-0.652-1.575-0.978-2.771-0.979-3.586l-0.244-21.998
	l0.082-14.095V72.51c1.467-0.543,4.21-0.814,8.229-0.814c9.071,0,15.778,0.869,20.124,2.607c4.508,1.739,8.338,5.161,11.488,10.266
	c2.227,3.586,3.34,8.474,3.34,14.666C137.9,105.263,136.867,110.178,134.805,113.98z"/>
</svg>
