<?xml version="1.0" encoding="utf-8"?>
<!-- Generator: Adobe Illustrator 16.0.4, SVG Export Plug-In . SVG Version: 6.00 Build 0)  -->
<!DOCTYPE svg PUBLIC "-//W3C//DTD SVG 1.1//EN" "http://www.w3.org/Graphics/SVG/1.1/DTD/svg11.dtd">
<svg version="1.1" id="Capa_1" xmlns="http://www.w3.org/2000/svg" xmlns:xlink="http://www.w3.org/1999/xlink" x="0px" y="0px"
	 width="216px" height="146px" viewBox="0 0 216 146" enable-background="new 0 0 216 146" xml:space="preserve">
<path d="M169.84,55.483c-0.488-0.489-1.113-0.733-1.875-0.733h-35.848c5.051,0,9.355-1.778,12.914-5.336
	c3.557-3.558,5.336-7.862,5.336-12.914s-1.779-9.356-5.336-12.914c-3.559-3.557-7.863-5.336-12.914-5.336
	c-5.812,0-10.375,2.091-13.688,6.273L108,37.966L97.573,24.523c-3.314-4.182-7.876-6.273-13.688-6.273
	c-5.052,0-9.357,1.778-12.914,5.336c-3.557,3.558-5.336,7.862-5.336,12.914s1.778,9.357,5.336,12.914
	c3.558,3.557,7.862,5.336,12.914,5.336H48.036c-0.761,0-1.385,0.244-1.874,0.733c-0.488,0.489-0.733,1.114-0.733,1.874V83.43
	c0,0.76,0.244,1.385,0.733,1.873c0.489,0.488,1.114,0.732,1.874,0.732h7.822v33.895c0,2.173,0.76,4.019,2.281,5.539
	c1.52,1.521,3.367,2.281,5.54,2.281h88.643c2.173,0,4.02-0.76,5.541-2.281c1.52-1.521,2.281-3.367,2.281-5.539V86.035h7.819
	c0.761,0,1.386-0.244,1.875-0.732c0.488-0.488,0.731-1.113,0.731-1.873V57.357C170.57,56.597,170.327,55.972,169.84,55.483z
	 M126.496,31.204c1.412-1.683,3.285-2.525,5.621-2.525c2.173,0,4.02,0.76,5.54,2.281c1.52,1.52,2.28,3.367,2.28,5.54
	s-0.761,4.02-2.28,5.54c-1.521,1.521-3.367,2.281-5.54,2.281h-15.807L126.496,31.204z M83.884,44.321
	c-2.173,0-4.019-0.76-5.542-2.281c-1.52-1.52-2.281-3.367-2.281-5.54c0-2.173,0.76-4.019,2.281-5.54s3.368-2.281,5.541-2.281
	c2.336,0,4.21,0.841,5.622,2.525l10.266,13.117H83.884z M121.036,70.393v38.13v4.562c0,1.358-0.489,2.403-1.466,3.137
	c-0.978,0.734-2.228,1.101-3.747,1.101h-15.644c-1.521,0-2.77-0.367-3.748-1.101s-1.467-1.778-1.467-3.137v-4.562v-38.13V54.75
	h26.072V70.393z"/>
</svg>
