<?xml version="1.0" encoding="utf-8"?>
<!-- Generator: Adobe Illustrator 16.0.4, SVG Export Plug-In . SVG Version: 6.00 Build 0)  -->
<!DOCTYPE svg PUBLIC "-//W3C//DTD SVG 1.1//EN" "http://www.w3.org/Graphics/SVG/1.1/DTD/svg11.dtd">
<svg version="1.1" id="Capa_1" xmlns="http://www.w3.org/2000/svg" xmlns:xlink="http://www.w3.org/1999/xlink" x="0px" y="0px"
	 width="216px" height="146px" viewBox="0 0 216 146" enable-background="new 0 0 216 146" xml:space="preserve">
<g>
	<path d="M183.159,29.127c-2.037-2.037-4.495-3.056-7.374-3.056H40.214c-2.879,0-5.336,1.019-7.373,3.056
		c-2.037,2.037-3.056,4.495-3.056,7.373v73c0,2.879,1.019,5.336,3.056,7.373c2.037,2.037,4.494,3.057,7.373,3.057h135.571
		c2.879,0,5.337-1.02,7.374-3.057c2.036-2.037,3.056-4.494,3.056-7.373v-73C186.215,33.622,185.195,31.164,183.159,29.127z
		 M175.785,109.5H40.214v-73h135.571V109.5z"/>
	<path d="M51.946,99.071h7.821c0.869,0,1.304-0.435,1.304-1.304v-7.821c0-0.868-0.434-1.304-1.304-1.304h-7.821
		c-0.869,0-1.304,0.436-1.304,1.304v7.821C50.642,98.636,51.077,99.071,51.946,99.071z"/>
	<path d="M51.946,78.215h18.25c0.869,0,1.304-0.436,1.304-1.305v-7.821c0-0.869-0.435-1.303-1.304-1.304h-18.25
		c-0.869,0-1.304,0.435-1.304,1.304v7.821C50.642,77.779,51.077,78.215,51.946,78.215z"/>
	<path d="M51.946,57.357h7.821c0.869,0,1.304-0.435,1.304-1.304v-7.821c0-0.869-0.434-1.303-1.304-1.304h-7.821
		c-0.869,0-1.304,0.435-1.304,1.304v7.821C50.642,56.922,51.077,57.357,51.946,57.357z"/>
	<path d="M143.197,88.643H72.804c-0.869,0-1.304,0.436-1.304,1.304v7.821c0,0.868,0.435,1.304,1.304,1.304h70.391
		c0.869,0,1.305-0.435,1.305-1.304v-7.821C144.5,89.078,144.064,88.643,143.197,88.643z"/>
	<path d="M81.928,76.91c0,0.869,0.435,1.305,1.303,1.305h7.822c0.869,0,1.303-0.436,1.303-1.305v-7.821
		c0-0.869-0.433-1.303-1.303-1.304h-7.822c-0.868,0-1.303,0.435-1.303,1.304V76.91z"/>
	<path d="M72.804,57.357h7.821c0.869,0,1.304-0.435,1.304-1.304v-7.821c0-0.869-0.435-1.303-1.304-1.304h-7.821
		c-0.869,0-1.304,0.435-1.304,1.304v7.821C71.5,56.922,71.935,57.357,72.804,57.357z"/>
	<path d="M102.785,76.91c0,0.869,0.435,1.305,1.304,1.305h7.821c0.869,0,1.305-0.436,1.305-1.305v-7.821
		c0-0.869-0.436-1.303-1.305-1.304h-7.821c-0.869,0-1.304,0.435-1.304,1.304V76.91z"/>
	<path d="M93.66,57.357h7.821c0.869,0,1.304-0.435,1.304-1.304v-7.821c0-0.869-0.434-1.303-1.304-1.304H93.66
		c-0.869,0-1.304,0.435-1.304,1.304v7.821C92.356,56.922,92.791,57.357,93.66,57.357z"/>
	<path d="M123.643,76.91c0,0.869,0.435,1.305,1.303,1.305h7.822c0.869,0,1.303-0.436,1.303-1.305v-7.821
		c0-0.869-0.434-1.303-1.303-1.304h-7.822c-0.868,0-1.303,0.435-1.303,1.304V76.91z"/>
	<path d="M164.053,88.643h-7.82c-0.869,0-1.305,0.436-1.305,1.304v7.821c0,0.868,0.436,1.304,1.305,1.304h7.82
		c0.869,0,1.305-0.435,1.305-1.304v-7.821C165.357,89.078,164.923,88.643,164.053,88.643z"/>
	<path d="M114.518,57.357h7.822c0.869,0,1.303-0.435,1.303-1.304v-7.821c0-0.869-0.434-1.303-1.303-1.304h-7.822
		c-0.869,0-1.303,0.435-1.303,1.304v7.821C113.215,56.922,113.648,57.357,114.518,57.357z"/>
	<path d="M135.375,57.357h7.82c0.869,0,1.305-0.435,1.305-1.304v-7.821c0-0.869-0.436-1.303-1.305-1.304h-7.82
		c-0.869,0-1.305,0.435-1.305,1.304v7.821C134.07,56.922,134.506,57.357,135.375,57.357z"/>
	<path d="M144.499,76.91c0,0.869,0.435,1.305,1.304,1.305h18.25c0.869,0,1.305-0.436,1.305-1.305V48.232
		c0-0.869-0.435-1.303-1.305-1.304h-7.82c-0.869,0-1.305,0.435-1.305,1.304v19.553h-9.125c-0.869,0-1.304,0.435-1.304,1.304V76.91z"
		/>
</g>
</svg>
